<?xml version="1.0" encoding="utf-8"?><svg version="1.1" id="Layer_1" xmlns="http://www.w3.org/2000/svg" xmlns:xlink="http://www.w3.org/1999/xlink" x="0px" y="0px" viewBox="0 0 107.32 122.88" style="enable-background:new 0 0 107.32 122.88" xml:space="preserve"><style type="text/css"><![CDATA[
	.st0{fill:#ED1C24;}
]]></style><g><path d="M99.96,6.2h0.75c0.92,0,1.67-0.3,1.67-1.11c0-0.61-0.45-1.17-1.61-1.17c-0.37,0-0.61,0-0.8,0.03V6.2L99.96,6.2L99.96,6.2z M99.96,10.12h-1.25V3.18c0.58-0.08,1.17-0.2,2.08-0.2c1.11,0,1.8,0.23,2.25,0.56c0.39,0.31,0.61,0.77,0.61,1.44 c0,0.89-0.58,1.47-1.33,1.67V6.7c0.61,0.11,0.99,0.67,1.13,1.7c0.17,1.08,0.3,1.5,0.42,1.72h-1.28c-0.17-0.23-0.31-0.86-0.45-1.77 c-0.13-0.84-0.61-1.17-1.47-1.17h-0.72V10.12L99.96,10.12L99.96,10.12z M101.1,1.31c-2.75,0-4.97,2.31-4.97,5.19 c0,2.89,2.22,5.2,5,5.2c2.75,0.03,4.95-2.31,4.95-5.2c0-2.89-2.2-5.19-4.95-5.19H101.1L101.1,1.31z M101.13,0.26 c3.44,0,6.19,2.78,6.19,6.22c0,3.5-2.75,6.28-6.22,6.28c-3.47,0-6.28-2.78-6.28-6.28c0-3.44,2.81-6.22,6.28-6.22H101.13 L101.13,0.26z"/><path d="M11.95,111.66l-1.04-6.18c-0.3-1.78-0.68-4.57-0.97-6.49H9.83c-0.31,1.94-0.73,4.81-1.04,6.51l-1.12,6.17H11.95 L11.95,111.66L11.95,111.66z M7.1,115.69l-1.36,6.86H0.73l6.25-28.54h6.14l5.68,28.54h-5.04l-1.33-6.86H7.1L7.1,115.69z"/><path d="M30.21,109.8c0-0.38,0-0.83-0.08-1.23c-0.2-1.41-0.95-2.68-2.15-2.68c-2.07,0-2.83,2.98-2.83,6.46c0,4,1.08,6.28,2.76,6.28 c0.76,0,1.65-0.39,2.13-2.07c0.12-0.33,0.18-0.78,0.18-1.31V109.8L30.21,109.8L30.21,109.8z M35.35,93.25v23.38 c0,1.85,0.09,4.13,0.17,5.91h-4.44l-0.29-2.38h-0.11c-0.75,1.47-2.37,2.71-4.31,2.71c-4.25,0-6.36-4.69-6.36-10.62 c0-7.22,3.15-10.73,6.57-10.73c1.79,0,2.95,0.88,3.54,2.15h0.09V93.25H35.35L35.35,93.25L35.35,93.25z"/><path d="M46.06,118.94c1.96,0,2.45-3.7,2.45-6.76c0-2.91-0.49-6.71-2.54-6.71c-2.17,0-2.63,3.79-2.63,6.71 c0,3.51,0.57,6.76,2.67,6.76H46.06L46.06,118.94z M45.96,122.88c-4.74,0-7.71-3.8-7.71-10.62c0-7.43,3.82-10.74,7.83-10.74 c4.67,0,7.61,3.99,7.61,10.62c0,8.51-4.59,10.74-7.68,10.74H45.96L45.96,122.88z"/><path d="M61.7,115.16c0,0.52,0.1,1,0.21,1.32c0.52,1.73,1.39,2.15,2.09,2.15c1.99,0,2.79-2.52,2.79-6.55c0-3.67-0.85-6.2-2.81-6.2 c-0.97,0-1.8,1.06-2.08,2.2c-0.1,0.36-0.19,0.92-0.19,1.3V115.16L61.7,115.16L61.7,115.16z M56.56,93.25h5.14v10.77h0.08 c1.01-1.59,2.36-2.5,4.32-2.5c3.88,0,5.82,4.41,5.82,10.17c0,7.28-2.9,11.18-6.67,11.18c-1.79,0-2.99-0.79-4.06-2.81h-0.11 l-0.29,2.47h-4.41c0.07-1.71,0.17-4.06,0.17-5.91V93.25L56.56,93.25L56.56,93.25z"/><path d="M84.25,110.23c0.03-2.9-0.82-4.94-2.46-4.94c-1.86,0-2.65,2.72-2.71,4.94H84.25L84.25,110.23z M79.07,113.87 c0.06,3.74,2.03,4.96,4.47,4.96c1.55,0,2.87-0.34,3.85-0.71l0.69,3.7c-1.36,0.59-3.47,0.96-5.49,0.96c-5.52,0-8.53-3.77-8.53-10.21 c0-6.91,3.5-11.06,8.06-11.06c4.41,0,6.86,3.67,6.86,9.66c0,1.37-0.06,2.14-0.15,2.75L79.07,113.87L79.07,113.87L79.07,113.87z"/><polygon class="st0" points="56.09,0 88.98,0 88.98,78.75 56.09,0"/><polygon class="st0" points="32.91,0 0,0 0,78.75 32.91,0"/><polygon class="st0" points="30.12,62.91 44.5,29.02 65.46,78.75 51.73,78.75 45.46,62.91 30.12,62.91"/></g></svg>